<?xml version="1.0" encoding="utf-8"?>
<!-- Generator: Adobe Illustrator 19.0.0, SVG Export Plug-In . SVG Version: 6.00 Build 0)  -->
<svg version="1.1" id="Layer_1" xmlns="http://www.w3.org/2000/svg" xmlns:xlink="http://www.w3.org/1999/xlink" x="0px" y="0px"
	 viewBox="-187 293.8 466.8 101.5" style="enable-background:new -187 293.8 466.8 101.5;" xml:space="preserve">
<style type="text/css">
	.st0{fill:#FFFFFF;}
</style>
<g id="XMLID_2_">
	<g id="XMLID_47_">
		<path id="XMLID_58_" class="st0" d="M279.7,336.4c0,12.3-0.1,24.6,0.1,37c0.1,3.2-0.9,4.1-3.9,3.7c-2.1-0.2-4.3,0-6.5-0.1
			c-1.1,0-2.7,0.4-2.6-1.4c0.3-5.2-2.8-3-5.1-2.4c-4.3,1.2-8.5,2.8-12.8,3.9c-18.3,4.7-31.4-4-32.9-22.6
			c-1.5-18.7-1.9-37.6-2.8-56.4c-0.1-2.2,0.7-3.1,2.8-2.9c0.2,0,0.3,0,0.5,0c12.2-0.6,12.2-0.6,11.9,11.6
			c-0.3,11.2-0.5,22.3-0.7,33.5c-0.1,6.2,1.4,12.2,4,17.8c3.6,8,10.3,10.8,20.5,8.8c7.4-1.5,12.6-7.8,12.5-15.8
			c-0.2-17.2-0.5-34.3-1.1-51.5c-0.1-3.8,0.9-4.7,4.7-4.7c11.4,0.2,11.4,0,11.3,11.3C279.5,316.4,279.6,326.4,279.7,336.4
			C279.6,336.4,279.7,336.4,279.7,336.4z"/>
		<path id="XMLID_57_" class="st0" d="M-53.4,295.2c5.3,0,10.3,0.1,15.2,0c2.8-0.1,2.2,1.6,2.1,3.3c-1.6,17.6-1.7,35.2-1.2,52.9
			c0.2,7.6,0.7,15.3,1.4,22.9c0.2,2.6-0.5,3.3-2.8,3.1c-1.2-0.1-2.3-0.1-3.5,0c-4.7,0.5-8.7,0.3-6.8-7c-4.7,2-8.6,3.7-12.6,5.3
			c-5.5,2.1-11.1,3.8-17,2.9c-13.1-1.8-22-12.2-22.7-26.8c-0.6-13.3-0.7-26.6-1.1-39.9c-0.1-4.5-0.5-9-1-13.4c-0.2-2.4,0.7-3,3-3.1
			c11.9-0.5,11.8-0.6,12,11.2c0.2,14.6-1.1,29.3,0.9,43.9c1.6,11.9,9.6,18.2,20.9,16.9c8.1-0.9,13.4-6.1,14.1-14.2
			c0.8-9.6,1.5-19.2,1.9-28.9C-50,314.6-51.1,305.1-53.4,295.2z"/>
		<path id="XMLID_56_" class="st0" d="M154.8,359.3c3.4,2.2,5.9,3.8,8.4,5.3c2.3,1.4,4.7,2.5,7.4,2.8c5.2,0.5,9.6-0.9,12.7-5.2
			c2.8-3.9,1.5-7.9-0.1-11.8c-1.4-3.3-3.9-5.7-6.7-7.9c-4.4-3.3-8.9-6.5-13-10.1c-6.9-6-9.5-13.5-6.8-22.4
			c2.8-9.2,9.3-14.5,18.6-15.7c5.6-0.7,11.3-0.8,16.9,0.8c3.6,1,6.7,11.1,4.2,13.7c-0.8,0.8-1.9,0.3-2.8-0.1
			c-3.1-1.1-6.2-2.4-9.4-3.3c-4.9-1.4-10.2,0.3-12.5,3.8c-2.1,3.2-1.2,9,2.2,12.9c4.2,4.7,9.2,8.7,14.4,12.3
			c8.9,6,14,13.8,11.3,24.9c-2.6,10.8-10.3,16.2-20.5,18.6c-6.1,1.4-12.2,1.1-18.2-0.7c-4.5-1.3-6.6-4-6.1-8.8
			C155,365.7,154.8,363,154.8,359.3z"/>
		<path id="XMLID_55_" class="st0" d="M148.8,295.2c-2.5,13.1-2.5,13.1-14.5,10.4c-9.3-2.1-9.3-2.1-9.3,7.5c0,20-0.1,39.9,0.1,59.9
			c0,3.2-0.6,4.5-4,4.1c-3.8-0.4-8.8,1.2-11.1-0.8c-2.5-2-0.4-7.1-0.3-10.9c0.3-19.1,0.7-38.3,1.3-57.4c0.1-3.7-0.8-4.5-4.4-3.8
			c-6,1.2-12.1,1.9-18.2,2.8c-0.9,0.1-2.3,1.3-2.7-0.8c-0.8-4,4.3-11,8.6-11.1C112.3,295.1,130.5,295.2,148.8,295.2z"/>
		<path id="XMLID_54_" class="st0" d="M6.6,393.8c3.2-2.4,6.4-4.3,9.1-7c5.4-5.4,8.7-12,8.9-19.5c0.4-20.8,0.1-41.6,0.1-62.8
			c-5.3,0.5-10.3,0.9-15.3,1.4c1.3-9.4,2.8-10.8,11.8-10.8c5.5,0,11,0,16.5,0c1.9,0,3.1,0.1,2.8,2.7c-3,19.9-1.3,39.9-1.7,59.8
			c-0.2,7.8-0.6,15.6-3.2,23.1C31.4,392.7,19.3,398.2,6.6,393.8z"/>
		<path id="XMLID_53_" class="st0" d="M-187,393.8c2.1-1.6,4.1-3.1,6-4.6c7.9-6.1,11.7-14.3,11.7-24.2c0.1-18.8,0-37.7,0.1-56.5
			c0-3-0.3-4.7-4-3.7c-1.9,0.5-4,0.5-6,0.3c-1.8-0.1-4.7,2.4-5.1-0.9c-0.4-3.3-0.3-8.2,3.9-8.7c8.6-0.9,17.3-0.4,25.9-0.5
			c1.6,0,1.3,1.2,1.1,2.1c-5.4,20.1-1.1,40.5-2,60.7c-0.3,8.3-1.1,16.6-4.2,24.4C-163.9,393.4-174.8,398-187,393.8z"/>
		<path id="XMLID_51_" class="st0" d="M58.7,336.6c0-12.3,0.1-24.6-0.1-36.9c0-3,0.4-4.3,4-4.3c11.2,0.1,11.6-0.1,10.9,11.1
			c-1.4,22.3-0.5,44.5,0.3,66.8c0.1,2.9-0.4,3.9-3.6,3.9c-11.4,0-11.4,0.1-11.4-11.1C58.7,356.2,58.7,346.4,58.7,336.6z"/>
		<path id="XMLID_50_" class="st0" d="M-135.4,335.9c0-12.2,0.1-24.3-0.1-36.5c0-2.9,0.3-4.4,3.9-4.4c11.6,0.1,11.9-0.1,11.1,11.4
			c-1.4,20.5-1.2,40.9,0.1,61.4c0.2,2.9,2.4,6.7,0.4,8.6c-2.1,2-6.1,0.2-9.1,0.7c-5.1,0.8-6.7-1-6.5-6.2
			C-135.1,359.2-135.4,347.6-135.4,335.9z"/>
	</g>
</g>
</svg>
