<?xml version="1.0" encoding="utf-8"?>
<!-- Generator: Adobe Illustrator 19.0.0, SVG Export Plug-In . SVG Version: 6.00 Build 0)  -->
<svg version="1.1" id="Layer_1" xmlns="http://www.w3.org/2000/svg" xmlns:xlink="http://www.w3.org/1999/xlink" x="0px" y="0px"
	 viewBox="0 0 466.8 194.5" style="enable-background:new 0 0 466.8 194.5;" xml:space="preserve">
<style type="text/css">
	.st0{fill:#FFFFFF;}
</style>
<g id="XMLID_2_">
	<g id="XMLID_47_">
		<path id="XMLID_58_" class="st0" d="M466.7,135.6c0,12.3-0.1,24.6,0.1,37c0.1,3.2-0.9,4.1-3.9,3.7c-2.1-0.2-4.3,0-6.5-0.1
			c-1.1,0-2.7,0.4-2.6-1.4c0.3-5.2-2.8-3-5.1-2.4c-4.3,1.2-8.5,2.8-12.8,3.9c-18.3,4.7-31.4-4-32.9-22.6
			c-1.5-18.7-1.9-37.6-2.8-56.4c-0.1-2.2,0.7-3.1,2.8-2.9c0.2,0,0.3,0,0.5,0c12.2-0.6,12.2-0.6,11.9,11.6
			c-0.3,11.2-0.5,22.3-0.7,33.5c-0.1,6.2,1.4,12.2,4,17.8c3.6,8,10.3,10.8,20.5,8.8c7.4-1.5,12.6-7.8,12.5-15.8
			c-0.2-17.2-0.5-34.3-1.1-51.5c-0.1-3.8,0.9-4.7,4.7-4.7c11.4,0.2,11.4,0,11.3,11.3C466.5,115.6,466.6,125.6,466.7,135.6
			C466.6,135.6,466.7,135.6,466.7,135.6z"/>
		<path id="XMLID_57_" class="st0" d="M133.6,94.4c5.3,0,10.3,0.1,15.2,0c2.8-0.1,2.2,1.6,2.1,3.3c-1.6,17.6-1.7,35.2-1.2,52.9
			c0.2,7.6,0.7,15.3,1.4,22.9c0.2,2.6-0.5,3.3-2.8,3.1c-1.2-0.1-2.3-0.1-3.5,0c-4.7,0.5-8.7,0.3-6.8-7c-4.7,2-8.6,3.7-12.6,5.3
			c-5.5,2.1-11.1,3.8-17,2.9c-13.1-1.8-22-12.2-22.7-26.8c-0.6-13.3-0.7-26.6-1.1-39.9c-0.1-4.5-0.5-9-1-13.4c-0.2-2.4,0.7-3,3-3.1
			c11.9-0.5,11.8-0.6,12,11.2c0.2,14.6-1.1,29.3,0.9,43.9c1.6,11.9,9.6,18.2,20.9,16.9c8.1-0.9,13.4-6.1,14.1-14.2
			c0.8-9.6,1.5-19.2,1.9-28.9C137,113.8,135.9,104.3,133.6,94.4z"/>
		<path id="XMLID_56_" class="st0" d="M341.8,158.5c3.4,2.2,5.9,3.8,8.4,5.3c2.3,1.4,4.7,2.5,7.4,2.8c5.2,0.5,9.6-0.9,12.7-5.2
			c2.8-3.9,1.5-7.9-0.1-11.8c-1.4-3.3-3.9-5.7-6.7-7.9c-4.4-3.3-8.9-6.5-13-10.1c-6.9-6-9.5-13.5-6.8-22.4
			c2.8-9.2,9.3-14.5,18.6-15.7c5.6-0.7,11.3-0.8,16.9,0.8c3.6,1,6.7,11.1,4.2,13.7c-0.8,0.8-1.9,0.3-2.8-0.1
			c-3.1-1.1-6.2-2.4-9.4-3.3c-4.9-1.4-10.2,0.3-12.5,3.8c-2.1,3.2-1.2,9,2.2,12.9c4.2,4.7,9.2,8.7,14.4,12.3
			c8.9,6,14,13.8,11.3,24.9c-2.6,10.8-10.3,16.2-20.5,18.6c-6.1,1.4-12.2,1.1-18.2-0.7c-4.5-1.3-6.6-4-6.1-8.8
			C342,164.9,341.8,162.2,341.8,158.5z"/>
		<path id="XMLID_55_" class="st0" d="M335.8,94.4c-2.5,13.1-2.5,13.1-14.5,10.4c-9.3-2.1-9.3-2.1-9.3,7.5c0,20-0.1,39.9,0.1,59.9
			c0,3.2-0.6,4.5-4,4.1c-3.8-0.4-8.8,1.2-11.1-0.8c-2.5-2-0.4-7.1-0.3-10.9c0.3-19.1,0.7-38.3,1.3-57.4c0.1-3.7-0.8-4.5-4.4-3.8
			c-6,1.2-12.1,1.9-18.2,2.8c-0.9,0.1-2.3,1.3-2.7-0.8c-0.8-4,4.3-11,8.6-11.1C299.3,94.3,317.5,94.4,335.8,94.4z"/>
		<path id="XMLID_54_" class="st0" d="M193.6,193c3.2-2.4,6.4-4.3,9.1-7c5.4-5.4,8.7-12,8.9-19.5c0.4-20.8,0.1-41.6,0.1-62.8
			c-5.3,0.5-10.3,0.9-15.3,1.4c1.3-9.4,2.8-10.8,11.8-10.8c5.5,0,11,0,16.5,0c1.9,0,3.1,0.1,2.8,2.7c-3,19.9-1.3,39.9-1.7,59.8
			c-0.2,7.8-0.6,15.6-3.2,23.1C218.4,191.9,206.3,197.4,193.6,193z"/>
		<path id="XMLID_53_" class="st0" d="M0,193c2.1-1.6,4.1-3.1,6-4.6c7.9-6.1,11.7-14.3,11.7-24.2c0.1-18.8,0-37.7,0.1-56.5
			c0-3-0.3-4.7-4-3.7c-1.9,0.5-4,0.5-6,0.3c-1.8-0.1-4.7,2.4-5.1-0.9c-0.4-3.3-0.3-8.2,3.9-8.7c8.6-0.9,17.3-0.4,25.9-0.5
			c1.6,0,1.3,1.2,1.1,2.1c-5.4,20.1-1.1,40.5-2,60.7c-0.3,8.3-1.1,16.6-4.2,24.4C23.1,192.6,12.2,197.2,0,193z"/>
		<path id="XMLID_52_" class="st0" d="M187.6,40.1c4.9-12.4,9.9-23.6,13.8-35.2c1.8-5.2,4.8-4.9,8.7-4.5c1.9,0.2,2.5,0.9,2.5,2.8
			c-0.3,15.1-0.5,30.3-0.8,45.5c-0.1,4.6-3.6,2-5.5,2.5c-1.9,0.4-3.8,0.5-3.7-2.8c0.3-8.1,0.1-16.3-0.6-24.8
			c-2.7,6.5-5.5,13.1-8.2,19.6c-0.8,2-1.5,4-2.3,6c-0.8,2.1-2,3.1-4.4,3.1c-2.5,0-3.5-1.1-4.4-3.1c-3.4-8.1-6.9-16.1-10.4-24.2
			c-0.3-0.7-0.7-1.3-1.6-2.9c0,9.2-0.2,17.3,0.1,25.4c0.2,3.8-1.6,3.8-4.4,3.8c-2.9,0-4.8,0.2-4.8-4c0.3-14.2,0.1-28.3,0.1-42.5
			c0-1.8-0.8-4.3,2.5-4.3c2.7-0.1,5.4-1.3,7,2.5C176.4,15.1,181.8,27,187.6,40.1z"/>
		<path id="XMLID_51_" class="st0" d="M245.7,135.8c0-12.3,0.1-24.6-0.1-36.9c0-3,0.4-4.3,4-4.3c11.2,0.1,11.6-0.1,10.9,11.1
			c-1.4,22.3-0.5,44.5,0.3,66.8c0.1,2.9-0.4,3.9-3.6,3.9c-11.4,0-11.4,0.1-11.4-11.1C245.7,155.4,245.7,145.6,245.7,135.8z"/>
		<path id="XMLID_50_" class="st0" d="M51.6,135.1c0-12.2,0.1-24.3-0.1-36.5c0-2.9,0.3-4.4,3.9-4.4c11.6,0.1,11.9-0.1,11.1,11.4
			c-1.4,20.5-1.2,40.9,0.1,61.4c0.2,2.9,2.4,6.7,0.4,8.6c-2.1,2-6.1,0.2-9.1,0.7c-5.1,0.8-6.7-1-6.5-6.2
			C51.9,158.4,51.6,146.8,51.6,135.1z"/>
		<path id="XMLID_49_" class="st0" d="M260.3,20.7c0-5.8,0.1-11.6-0.1-17.5c-0.1-2.1,0.2-2.8,2.5-3c7.8-0.5,7.8-0.6,7.6,7
			c-0.2,9-0.5,17.9-0.6,26.9c-0.1,3.9,0.2,8.2,4.3,9.8c5.2,2.1,10.8,2.4,15.7-0.9c2.9-1.9,2.8-5.5,2.8-8.6c-0.1-9.6,0-19.3-0.7-28.9
			c-0.4-5.3,2.2-5.1,6.1-5.4c4.7-0.3,4,2.3,4,5.2c-0.3,11.3-0.1,22.6-0.7,33.9c-0.5,8-3.8,11.4-11.5,12.6c-6.7,1-13.6,1.1-20.3-0.6
			c-4.2-1.1-6.8-3.7-7.7-8.1C259.9,35.6,261.4,28.1,260.3,20.7z"/>
		<path id="XMLID_48_" class="st0" d="M220.7,25.7c0-6.8,0.2-13.7-0.1-20.5c-0.1-3.7,0.5-5.2,4.7-5c7.6,0.4,15.3,0.5,23,0
			c4.7-0.3,5.2,2.2,5.3,5.6c0.1,4.9-3.6,2.3-5.4,2.4c-4.6,0.1-9.2-0.5-13.9-0.8c-3.2-0.2-4.9,0.9-4.9,4.5c0.3,11.9-1.5,9.3,9.3,9.5
			c3.6,0.1,7.3-0.3,10.9-0.9c3.3-0.5,3.2,1.4,2.9,3.5c-0.3,2.2,0.9,5.9-3.3,5.1c-5.3-1.1-10.6-0.2-15.9-0.6
			c-2.7-0.2-4.2,0.7-3.9,3.6c0,0.2,0,0.3,0,0.5c-0.4,12.2,1.5,13.9,13.6,11.7c2-0.4,3.9-0.4,5.9-0.5c5.9-0.3,7,1.5,4.6,7
			c-0.5,1.1-1.2,1.6-2.2,1.4c-9.2-1.7-18.6-0.5-27.8-0.6c-2.5,0-3.1-0.9-3-3.2C220.8,40.7,220.7,33.2,220.7,25.7z"/>
	</g>
</g>
</svg>
